<?xml version="1.0"?>
<svg xmlns="http://www.w3.org/2000/svg" xmlns:xlink="http://www.w3.org/1999/xlink" viewBox="0 0 512 512" width="512" height="512"><linearGradient id="a" gradientUnits="userSpaceOnUse" x1="219.974" x2="219.974" y1="34" y2="483.782"><stop offset="0" stop-color="#00efd1"/><stop offset="1" stop-color="#00acea"/></linearGradient><linearGradient id="b" x1="220" x2="220" xlink:href="#a" y1="34" y2="483.782"/><linearGradient id="c" x1="354.787" x2="354.787" xlink:href="#a" y1="34" y2="483.782"/><linearGradient id="d" x1="85.161" x2="85.161" xlink:href="#a" y1="34" y2="483.782"/><path d="m349.33 266.248-83.2-12.1-37.185-75.395a10 10 0 0 0 -17.937 0l-37.188 75.393-83.2 12.1a10 10 0 0 0 -5.547 17.054l60.172 58.708-14.2 82.865a10 10 0 0 0 14.511 10.54l74.419-39.137 74.419 39.137a10 10 0 0 0 14.51-10.54l-14.204-82.863 60.174-58.71a10 10 0 0 0 -5.544-17.054zm-72.355 65.115a10 10 0 0 0 -2.873 8.847l11.666 68.073-61.14-32.154a10 10 0 0 0 -9.309 0l-61.139 32.154 11.666-68.073a10 10 0 0 0 -2.873-8.847l-49.441-48.238 68.37-9.944a10 10 0 0 0 7.53-5.473l30.542-61.926 30.542 61.926a10 10 0 0 0 7.529 5.473l68.37 9.944z" fill="url(#a)"/><path d="m220 147.287a10 10 0 0 0 10-10v-51.851a10 10 0 0 0 -20 0v51.851a10 10 0 0 0 10 10z" fill="url(#b)"/><path d="m376.342 130.375a10 10 0 0 0 -14 2l-31.111 41.481a10 10 0 1 0 16 12l31.111-41.481a10 10 0 0 0 -2-14z" fill="url(#c)"/><path d="m100.724 189.857a10 10 0 0 0 7.992-16l-31.111-41.482a10 10 0 1 0 -16 12l31.111 41.481a9.984 9.984 0 0 0 8.008 4.001z" fill="url(#d)"/></svg>
